# xmcd
#
# Track frame offsets: 
#        150
#        25355
#        43557
#        54645
#        66142
#        79055
#        102327
#        116842
#        122442
#        138857
#        158012
#        176059
#        199042
#        228307
#        248452
#        274967
#        325892
#
# Disc length: 4669 seconds
#
# Revision: 9
# Processed by: cddbd v1.5.2PL0 Copyright (c) Steve Scherf et al.
# Submitted via: ExactAudioCopyFreeDBPlugin 1.0
#
DISCID=e6123b11
DTITLE=Booker T. and the M.G.'s  - Time is Tight [Stax box set]
DYEAR=1998
DGENRE=Soul
TTITLE0=Gotta Serve Somebody
TTITLE1=Lay Lady Lay (live 1992)
TTITLE2=MG Party
TTITLE3=Terrible Thing
TTITLE4=Hole in the Wall
TTITLE5=(Sittin' On) The Dock of the Bay
TTITLE6=Booker's Theme
TTITLE7=Albert's Rap
TTITLE8=Born Under a Bad Sign (with Albert King)
TTITLE9=Medley:  I'm With You - I Don't Mind - Oh, Baby Don't You Weep
TTITLE9=(live 1968)
TTITLE10=Meditation
TTITLE11=Green Onions
TTITLE12=Sarasota Sunset
TTITLE13=I've Been Loving You Too Long (To Stop Now) (live 1994) (with
TTITLE13=Boz Scaggs, vocals)
TTITLE14=Hang 'Em High
TTITLE15=Time is Tight (live 1993)
TTITLE16=(Sittin' On) The Dock of the Bay (live 1993) (with Neil Young
TTITLE16=, vocals)
EXTD=BOOKER T. and THE MG's "Time Is Tight" (3 CD-Set)1962 - 1993Label: 
EXTD=Stax RecordsStax 3SCD-4424-2All tracks digitally remastered
EXTT0=
EXTT1=
EXTT2=
EXTT3=
EXTT4=
EXTT5=
EXTT6=
EXTT7=
EXTT8=
EXTT9=
EXTT10=
EXTT11=
EXTT12=
EXTT13=
EXTT14=
EXTT15=
EXTT16=
PLAYORDER=
